<svg width="128" height="128" viewBox="0 0 128 128" fill="none" xmlns="http://www.w3.org/2000/svg">
<g clip-path="url(#clip0_112_211)">
<path d="M128 64C128 99.346 99.346 128 64 128C28.6535 128 0 99.346 0 64C0 28.6535 28.6535 0 64 0C99.346 0 128 28.6535 128 64Z" fill="#799FFF"/>
<path d="M64.6415 30.3655C64.6415 30.3655 84.561 62.8005 84.561 74.6155C84.561 84.035 80.156 95.368 64.6415 95.368C49.127 95.368 44.7145 84.0285 44.7145 74.6095C44.7145 63.2005 64.6415 30.3655 64.6415 30.3655Z" fill="white"/>
<path d="M50.266 41.259C50.266 41.259 62.803 61.673 62.803 69.1095C62.803 75.038 60.0305 82.171 50.266 82.171C40.501 82.171 37.724 75.034 37.724 69.1055C37.724 61.925 50.266 41.259 50.266 41.259Z" fill="#3D73FF"/>
</g>
<defs>
<clipPath id="clip0_112_211">
<rect width="128" height="128" fill="white"/>
</clipPath>
</defs>
</svg>
